<svg id="SvgjsSvg1001" width="256" height="256" xmlns="http://www.w3.org/2000/svg" version="1.1" xmlns:xlink="http://www.w3.org/1999/xlink" xmlns:svgjs="http://svgjs.com/svgjs"><defs id="SvgjsDefs1002"></defs><g id="SvgjsG1008"><svg xmlns="http://www.w3.org/2000/svg" enable-background="new 0 0 64 64" viewBox="0 0 64 64" width="256" height="256"><path fill="none" stroke="#010101" stroke-linecap="round" stroke-linejoin="round" stroke-miterlimit="10" stroke-width="1.966" d="M16 39.2h-.6c-5 0-9.5 2.2-12.6 5.6C-1.1 49 2 55.7 7.6 55.7h29M35.5 39.2h.6c1.5 0 3 .2 4.4.6" class="colorStroke010101 svgStroke"></path><path fill="none" stroke="#010101" stroke-linecap="round" stroke-linejoin="round" stroke-miterlimit="10" stroke-width="1.966" d="
		M32.1,36.4v2.5c0,1.7-0.7,3.3-1.8,4.5c-1.1,1.1-2.7,1.8-4.5,1.8c-3.5,0-6.3-2.8-6.3-6.3v-2.5c2,1.2,4.4,1.8,6.9,1.7
		C28.4,38,30.4,37.4,32.1,36.4z" class="colorStroke010101 svgStroke"></path><path fill="none" stroke="#010101" stroke-linecap="round" stroke-linejoin="round" stroke-miterlimit="10" stroke-width="1.966" d="
		M38,19.9v5.7c0,6.6-5.1,12.3-11.7,12.6c-7,0.3-12.8-5.3-12.8-12.2v-5.3c0.4,0.2,0.9,0.2,1.3-0.2c1.5-1.4,4.4-2.9,8.6-1.5
		c2.7,0.9,6-2.2,7.8-5.2c0,0,0,0.4,0.2,1.1c1.2,4.2,5.1,4.6,5.3,4.7C37,19.9,37.5,20,38,19.9z" class="colorStroke010101 svgStroke"></path><path fill="none" stroke="#010101" stroke-linecap="round" stroke-linejoin="round" stroke-miterlimit="10" stroke-width="1.966" d="M41.1 24.8c0 1.6-1.4 3-3.2 3.1.1-.6.2-1.1.2-1.7v-4.4C39.7 21.9 41.1 23.2 41.1 24.8zM10.4 24.8c0 1.6 1.4 3 3.2 3.1-.1-.6-.2-1.1-.2-1.7v-4.4C11.8 21.9 10.4 23.2 10.4 24.8z" class="colorStroke010101 svgStroke"></path><path fill="#4fbd96" d="M36.8 7.6c-.4-.2-.9-.4-1.4-.6C35.9 7 36.4 7.3 36.8 7.6zM35.4 6.9c-.1 0-.2 0-.2-.1l0 0C35.2 6.9 35.3 6.9 35.4 6.9z" class="color4FBD96 svgShape"></path><path fill="none" stroke="#010101" stroke-linecap="round" stroke-linejoin="round" stroke-miterlimit="10" stroke-width="1.966" d="
		M35.1,6.9c0,0-0.2-5-9.2-5.4c-4.5-0.2-8.5,2.2-11.1,5.6s-3.3,7.9-2.2,12.1l0.2,0.6c0.2,0.9,1.3,1.2,2,0.6c1.5-1.4,4.4-2.9,8.6-1.5
		c2.7,0.9,6-2.2,7.8-5.2c0,0,0,0.4,0.2,1.1c1.2,4.2,5.1,4.6,5.3,4.8c0.7,0.7,1.8,0.6,2.1-0.4l0,0C40.3,14.4,39.5,7.7,35.1,6.9" class="colorStroke010101 svgStroke"></path><path fill="#010101" d="M53.4,54c0-0.5-0.2-0.9-0.5-1.2s-0.8-0.6-1.5-0.9s-1.3-0.5-1.7-0.7c-1.3-0.7-2-1.8-2-3.2
		c0-0.9,0.3-1.7,0.9-2.3c0.6-0.6,1.4-1,2.3-1.1v-1.9h1.4v1.9c1,0.1,1.8,0.6,2.3,1.3s0.8,1.6,0.8,2.7h-2.1c0-0.7-0.2-1.3-0.5-1.7
		s-0.8-0.6-1.3-0.6s-1,0.1-1.3,0.4s-0.5,0.7-0.5,1.3c0,0.5,0.2,0.9,0.5,1.2s0.8,0.6,1.6,0.9c0.7,0.3,1.3,0.5,1.7,0.7
		s0.8,0.5,1.1,0.8s0.5,0.6,0.7,1s0.2,0.8,0.2,1.3c0,1-0.3,1.7-0.9,2.3c-0.6,0.6-1.4,1-2.5,1.1V59h-1.4v-1.7c-1.1-0.1-2-0.5-2.6-1.2
		s-0.9-1.6-0.9-2.7h2.1c0,0.7,0.2,1.3,0.5,1.7c0.4,0.4,0.9,0.6,1.5,0.6c0.7,0,1.1-0.2,1.5-0.5S53.4,54.5,53.4,54z" class="color010101 svgShape"></path><circle cx="51.4" cy="50.9" r="11.6" fill="none" stroke="#010101" stroke-linecap="round" stroke-linejoin="round" stroke-miterlimit="10" stroke-width="1.966" class="colorStroke010101 svgStroke"></circle></svg></g>
</svg>