<svg id="SvgjsSvg1018" width="256" height="256" xmlns="http://www.w3.org/2000/svg" version="1.1" xmlns:xlink="http://www.w3.org/1999/xlink" xmlns:svgjs="http://svgjs.com/svgjs"><defs id="SvgjsDefs1019"></defs><g id="SvgjsG1020"><svg xmlns="http://www.w3.org/2000/svg" enable-background="new 0 0 64 64" viewBox="0 0 64 64" width="256" height="256"><path fill="none" stroke="#010101" stroke-linecap="round" stroke-linejoin="round" stroke-miterlimit="10" stroke-width="2" d="M47.5 8.5V7.2c0-1.7 1.4-3.1 3.1-3.1h2.2c1.7 0 3.1 1.4 3.1 3.1V17M57.7 33.2l-25-25c-.4-.4-1.1-.4-1.5 0l-25 25c-1.2 1.2-3.2 1.2-4.4 0l0 0c-1.2-1.2-1.2-3.2 0-4.4l25-25c2.8-2.8 7.4-2.8 10.3 0l25 25c1.2 1.2 1.2 3.2 0 4.4l0 0C60.9 34.4 58.9 34.4 57.7 33.2z" class="colorStroke010101 svgStroke"></path><line x1="57.3" x2="57.3" y1="58.3" y2="37.6" fill="none" stroke="#010101" stroke-linecap="round" stroke-linejoin="round" stroke-miterlimit="10" stroke-width="2" class="colorStroke010101 svgStroke"></line><line x1="6.7" x2="6.7" y1="58.3" y2="37.6" fill="none" stroke="#010101" stroke-linecap="round" stroke-linejoin="round" stroke-miterlimit="10" stroke-width="2" class="colorStroke010101 svgStroke"></line><path fill="none" stroke="#010101" stroke-linecap="round" stroke-linejoin="round" stroke-miterlimit="10" stroke-width="2" d="M25.2 46.8H27h.1M10.4 58.3V54c0-.4.1-.9.2-1.3 0-.2.1-.4.2-.6.1-.2.1-.4.2-.6.1-.2.2-.4.2-.5v-.1c.1-.2.2-.3.3-.5.6-.9 1.3-1.7 2.2-2.3.2-.1.3-.2.5-.3.4-.2.7-.4 1.1-.5.2-.1.4-.1.6-.2.2-.1.4-.1.6-.1 0 0 0 0 .1 0 .4-.1.8-.1 1.2-.1h1.8M25.2 45.5v1.2c0 .8-.3 1.5-.8 1.9-.5.5-1.2.8-1.9.8-1.5 0-2.7-1.2-2.7-2.8v-1.2c.8.5 1.7.8 2.7.8S24.3 46 25.2 45.5z" class="colorStroke010101 svgStroke"></path><path fill="none" stroke="#010101" stroke-linecap="round" stroke-linejoin="round" stroke-miterlimit="10" stroke-width="2" d="
		M27.8,38.8v2c0,3-2.4,5.4-5.4,5.4S17,43.8,17,40.8v-2.1v0.1c0.6-0.3,1.2-1.5,1.6-2.4c0.2-0.5,0.8-0.8,1.3-0.6
		c2.3,0.9,4.1,0.5,5.2,0c0.5-0.2,1.1,0.1,1.3,0.6c0.3,0.9,0.7,1.5,1,1.9C27.7,38.7,27.8,38.8,27.8,38.8z" class="colorStroke010101 svgStroke"></path><path fill="none" stroke="#010101" stroke-linecap="round" stroke-linejoin="round" stroke-miterlimit="10" stroke-width="2" d="M27.8 38.8c0 0-.2-.2-.4-.5-.3-.4-.7-1-1-1.9-.2-.5-.8-.8-1.3-.6-1.1.4-3 .9-5.2-.1-.5-.2-1.1 0-1.3.6-.4.9-.9 2.1-1.6 2.4-.1.1-1.8-6 1.3-6.5 0 0 5.1-5.5 9.6 1.7.2.3.2.5.3.8C28.3 35.9 28.4 38.1 27.8 38.8zM44 46.1h1.9c4.2 0 7.6 3.3 7.7 7.4v4.7M28.7 58.3v-4.7c.1-2.1 1-4.1 2.5-5.4 1.4-1.3 3.2-2 5.2-2h1.9M44 44.8V46c0 .8-.3 1.5-.8 2s-1.2.8-2 .8c-1.6 0-2.8-1.3-2.8-2.8v-1.2c.8.5 1.8.8 2.8.8C42.2 45.5 43.2 45.3 44 44.8z" class="colorStroke010101 svgStroke"></path><path fill="none" stroke="#010101" stroke-linecap="round" stroke-linejoin="round" stroke-miterlimit="10" stroke-width="2" d="
		M46.8,37.9V40c0,3.1-2.5,5.6-5.6,5.6s-5.6-2.5-5.6-5.6v-2.1V38c0.6-0.4,1.2-1.6,1.6-2.5c0.2-0.6,0.8-0.8,1.4-0.6
		c2.3,0.9,4.3,0.5,5.4,0c0.5-0.2,1.2,0.1,1.4,0.6c0.3,0.9,0.8,1.6,1.1,2C46.6,37.6,46.7,37.8,46.8,37.9z" class="colorStroke010101 svgStroke"></path><path fill="none" stroke="#010101" stroke-linecap="round" stroke-linejoin="round" stroke-miterlimit="10" stroke-width="2" d="
		M46.8,37.9c0,0-0.2-0.2-0.4-0.5c-0.3-0.4-0.7-1.1-1-2c-0.2-0.5-0.8-0.8-1.4-0.6c-1.1,0.5-3.1,0.9-5.4-0.1c-0.5-0.2-1.2,0-1.4,0.6
		c-0.4,0.9-1,2.2-1.6,2.5c-0.1,0.1-1.9-6.2,1.4-6.7c0,0,5.3-5.7,10,1.8c0.2,0.3,0.3,0.6,0.3,0.9C47.3,34.8,47.3,37.1,46.8,37.9z" class="colorStroke010101 svgStroke"></path><polyline fill="none" stroke="#010101" stroke-linecap="round" stroke-linejoin="round" stroke-miterlimit="10" stroke-width="2" points="63 62.3 57.3 62.3 53.6 62.3 34.4 62.3 29.2 62.3 28.7 62.3 10.4 62.3 10.4 62.3 6.7 62.3 1 62.3"></polyline></svg></g>
</svg>